<?xml version="1.0" standalone="no"?>
<!DOCTYPE svg PUBLIC "-//W3C//DTD SVG 20010904//EN"
 "http://www.w3.org/TR/2001/REC-SVG-20010904/DTD/svg10.dtd">
<svg version="1.0" xmlns="http://www.w3.org/2000/svg"
 width="1053.000000pt" height="834.000000pt" viewBox="0 0 1053.000000 834.000000"
 preserveAspectRatio="xMidYMid meet">

<g transform="translate(0.000000,834.000000) scale(0.100000,-0.100000)"
fill="#f2ea2d" stroke="none">
<path d="M5950 8329 c0 -6 8 -28 19 -48 37 -72 64 -147 72 -202 4 -30 22 -93
39 -140 17 -46 46 -129 66 -184 35 -102 69 -194 84 -230 5 -11 19 -51 31 -90
12 -38 28 -84 36 -102 7 -17 13 -37 13 -45 0 -8 4 -18 8 -23 5 -6 19 -41 31
-80 12 -38 26 -79 31 -90 5 -11 19 -51 31 -90 12 -38 26 -74 30 -80 3 -5 10
-26 14 -45 4 -19 11 -41 15 -50 14 -27 28 -64 50 -130 12 -36 25 -72 30 -80 4
-9 11 -30 15 -49 4 -18 13 -44 21 -59 8 -15 14 -35 14 -44 0 -9 5 -20 10 -23
6 -3 10 -14 10 -23 0 -9 6 -29 14 -44 8 -15 17 -42 21 -60 10 -52 46 -155 85
-245 32 -73 25 -83 -52 -81 -35 1 -72 6 -83 11 -11 5 -52 42 -90 82 -56 59
-87 81 -155 113 -95 46 -182 72 -232 72 -47 -1 -143 -35 -202 -72 -28 -18 -86
-65 -129 -105 -87 -82 -185 -135 -282 -153 -99 -19 -131 -29 -159 -51 -47 -37
-25 -110 36 -124 13 -2 103 -8 200 -13 102 -4 182 -12 188 -18 6 -6 15 -40 20
-76 11 -77 37 -138 85 -197 58 -72 75 -172 30 -179 -11 -1 -53 -10 -93 -18
-78 -18 -170 -71 -200 -117 -10 -13 -35 -51 -57 -83 -81 -119 -145 -270 -145
-345 0 -55 -88 7 -168 120 -36 50 -40 90 -22 209 16 103 -12 162 -56 118 -30
-31 -70 -9 -81 44 -3 16 -18 41 -35 57 l-29 28 -36 -21 c-32 -18 -48 -41 -86
-118 -5 -10 -9 -41 -9 -70 -1 -63 32 -125 119 -229 71 -85 91 -122 128 -239
22 -72 70 -174 120 -256 9 -15 69 -113 100 -163 44 -71 56 -105 58 -157 2 -53
1 -57 -21 -57 -14 0 -29 10 -37 25 -92 164 -216 361 -255 403 -32 35 -75 67
-125 93 -42 21 -86 45 -99 51 -13 7 -31 24 -39 37 -27 40 -56 139 -62 212 -4
38 -12 85 -17 103 -6 19 -10 80 -9 135 2 152 -7 202 -40 241 -25 28 -29 41
-29 94 0 99 -17 138 -91 213 -80 79 -105 93 -206 114 -63 13 -115 15 -273 11
-107 -4 -205 -9 -218 -13 -43 -12 -188 79 -198 125 -4 14 -18 52 -31 83 -20
45 -31 58 -53 63 -37 8 -102 -25 -118 -60 -27 -58 -7 -158 52 -271 36 -70 60
-90 150 -124 75 -29 82 -30 253 -30 l175 0 76 -36 c60 -29 96 -55 161 -120 75
-76 83 -86 76 -111 -11 -43 -23 -197 -24 -303 -1 -100 -9 -120 -45 -120 -35 0
-81 35 -173 131 -123 128 -137 134 -298 134 l-130 0 0 92 c0 111 -10 128 -55
94 -34 -24 -68 -25 -81 -1 -4 8 -11 38 -16 65 l-8 50 -53 -1 c-60 -2 -83 -18
-113 -76 -32 -63 -26 -91 47 -200 36 -54 81 -110 100 -126 41 -33 42 -51 7
-111 -28 -47 -34 -61 -72 -163 -39 -108 -24 -179 46 -209 25 -10 55 -19 68
-19 26 0 32 -7 71 -78 15 -30 46 -71 67 -93 50 -50 154 -99 210 -99 37 0 48 6
82 40 36 37 43 40 95 40 30 -1 82 -6 115 -13 l60 -12 51 -100 c29 -55 56 -109
62 -120 17 -34 94 -101 167 -146 39 -23 103 -67 143 -97 72 -54 83 -73 63
-111 -5 -9 -14 -46 -20 -82 -5 -35 -17 -95 -26 -134 -9 -38 -20 -86 -24 -105
-21 -98 -32 -101 -256 -71 -38 6 -127 10 -197 10 -142 1 -156 4 -168 37 -5 13
-29 33 -52 45 -40 21 -56 22 -208 21 -218 -1 -500 -32 -605 -67 -102 -33 -292
-127 -364 -180 -75 -55 -398 -268 -439 -289 -41 -21 -141 -31 -218 -21 -51 6
-63 12 -102 51 -23 24 -47 44 -51 44 -4 0 -20 11 -35 25 -14 13 -70 41 -124
61 -140 52 -185 78 -222 124 -18 23 -49 52 -69 64 -20 13 -47 35 -61 49 -14
15 -29 27 -34 27 -5 0 -23 10 -40 23 -17 13 -58 36 -91 52 -57 27 -75 33 -170
56 -22 5 -44 16 -50 23 -5 7 -18 15 -28 19 -9 4 -22 18 -27 32 -5 14 -26 51
-47 83 -20 31 -44 71 -53 87 -8 17 -30 38 -49 47 -19 9 -50 33 -70 51 -59 57
-110 77 -194 77 -75 0 -96 -7 -178 -58 -42 -26 -95 -106 -105 -157 -3 -19 -10
-38 -15 -41 -12 -7 -12 -69 0 -92 4 -9 17 -37 28 -62 11 -25 48 -75 82 -113
33 -37 61 -71 61 -75 0 -5 -16 -23 -35 -42 -19 -19 -35 -39 -35 -45 0 -6 -10
-21 -23 -33 -19 -18 -84 -143 -132 -257 -7 -16 -28 -64 -45 -105 -18 -41 -40
-93 -50 -115 -10 -22 -28 -65 -40 -95 -12 -30 -35 -86 -51 -125 -15 -38 -31
-83 -35 -100 -4 -16 -10 -34 -14 -40 -5 -5 -11 -27 -15 -48 -4 -20 -11 -39
-15 -42 -5 -3 -11 -24 -15 -48 -4 -23 -11 -50 -16 -59 -9 -17 -22 -109 -37
-253 -4 -44 -15 -84 -29 -108 -21 -36 -23 -50 -23 -211 l0 -172 50 -38 c64
-48 115 -75 161 -82 31 -5 39 -2 57 21 20 25 22 40 22 149 0 131 5 146 50 146
16 0 37 11 54 29 25 26 26 31 15 52 -16 29 -56 95 -79 129 -27 42 -43 105 -37
151 21 167 44 236 117 349 16 25 37 59 46 75 43 78 190 299 208 314 9 8 26 10
44 7 21 -5 46 2 98 28 113 58 161 43 175 -55 5 -30 13 -84 18 -121 18 -117 68
-185 175 -234 54 -25 64 -26 150 -20 105 8 167 28 214 68 18 15 38 28 45 28 7
0 62 -33 122 -72 73 -49 119 -87 137 -114 15 -23 67 -83 116 -135 114 -120
121 -133 158 -299 9 -36 20 -85 26 -110 14 -57 14 -319 0 -385 -16 -78 -37
-138 -88 -253 -13 -29 -29 -70 -34 -92 -6 -22 -15 -59 -21 -83 -6 -23 -9 -73
-6 -111 4 -61 8 -73 31 -91 23 -18 26 -28 26 -77 0 -31 -4 -59 -9 -62 -5 -3
-12 -36 -16 -73 -4 -38 -10 -72 -14 -78 -3 -5 -11 -37 -18 -70 -6 -33 -16 -80
-22 -104 -10 -35 -9 -48 3 -66 13 -20 26 -23 113 -29 54 -3 149 -6 212 -5 69
0 117 -3 124 -10 6 -6 39 -11 72 -11 49 0 66 4 80 20 15 17 16 24 5 49 -16 40
-95 112 -150 138 -25 11 -72 28 -105 38 -33 9 -67 20 -75 24 -25 13 -22 44 9
102 16 31 33 72 36 92 4 20 12 41 19 46 6 5 49 11 96 14 98 5 162 18 186 38
26 22 61 81 69 119 4 19 11 40 16 46 13 16 31 208 31 329 0 183 -18 380 -37
408 -13 20 -15 41 -11 104 3 43 10 146 15 228 6 83 11 204 11 270 l0 120 67
55 c112 93 154 133 195 185 21 28 63 79 93 115 30 36 67 80 81 98 29 36 91 72
123 72 40 0 156 51 270 120 64 38 137 74 162 81 l45 12 65 -50 c92 -73 135
-93 194 -93 83 0 117 37 129 142 4 32 12 60 17 63 28 18 314 58 414 58 44 0
112 -7 150 -17 39 -9 96 -22 127 -29 31 -7 62 -17 68 -22 10 -11 -12 -227 -27
-265 -3 -8 -11 -42 -19 -75 -26 -122 -51 -183 -115 -290 -37 -61 -77 -130 -89
-155 -13 -25 -31 -56 -41 -69 -11 -13 -19 -30 -19 -38 0 -8 -15 -33 -33 -56
-18 -23 -41 -58 -51 -77 -11 -19 -34 -54 -53 -77 -18 -23 -33 -44 -33 -48 0
-4 -10 -21 -22 -38 -50 -70 -117 -189 -184 -327 -95 -194 -101 -209 -109 -266
-4 -27 -18 -80 -31 -118 -21 -63 -22 -71 -8 -97 8 -16 26 -36 39 -45 20 -13
25 -24 25 -61 0 -38 -6 -50 -46 -93 -28 -30 -55 -50 -68 -50 -12 0 -44 -20
-73 -45 -28 -25 -55 -45 -60 -45 -4 0 -36 -25 -71 -56 -51 -46 -63 -61 -60
-83 3 -24 7 -26 73 -34 91 -9 170 0 220 26 36 19 67 26 204 44 24 3 53 14 65
24 11 11 23 19 28 19 4 0 8 7 8 15 0 27 39 39 84 24 23 -8 73 -14 113 -14 71
0 73 0 115 42 24 24 51 64 61 90 11 27 30 69 43 96 13 26 26 63 30 82 3 19 10
37 14 40 5 3 11 23 15 45 4 22 10 42 15 45 5 3 11 23 15 45 4 22 11 42 16 46
5 3 9 15 9 27 0 12 17 73 38 137 22 63 49 149 61 190 12 41 27 83 32 92 5 10
9 24 9 32 0 22 48 162 73 213 233 473 341 685 354 690 24 10 41 -19 52 -87 14
-95 30 -172 40 -195 5 -11 14 -38 20 -60 5 -22 17 -66 26 -99 27 -98 37 -254
44 -679 l6 -408 25 -12 c43 -21 37 -53 -17 -105 -44 -43 -107 -91 -152 -117
-28 -16 -111 -114 -111 -131 0 -40 28 -69 90 -91 33 -12 40 -9 177 57 79 39
148 70 156 70 7 0 22 6 33 14 11 8 45 17 76 21 72 9 112 34 139 87 20 38 22
57 21 165 -1 68 -5 131 -11 140 -5 10 -12 74 -16 143 -4 69 -11 130 -16 136
-5 6 -12 90 -15 185 -3 96 -10 183 -16 195 -9 19 -8 65 5 229 3 33 8 149 12
258 6 160 10 200 22 204 28 11 33 -2 70 -167 7 -36 18 -86 23 -113 9 -46 20
-88 42 -152 35 -106 45 -218 67 -775 4 -113 9 -206 10 -207 0 -1 15 -10 32
-19 l32 -16 -6 -69 c-3 -38 -10 -84 -16 -102 -6 -17 -18 -59 -27 -92 -9 -33
-20 -69 -24 -80 -22 -53 -34 -125 -22 -137 7 -7 12 -20 12 -30 0 -22 65 -36
92 -19 29 18 50 28 96 45 101 38 125 52 176 100 30 28 66 73 81 99 25 49 55
163 55 216 0 24 8 30 73 58 65 27 75 35 98 79 14 27 29 63 33 79 10 39 7 216
-3 230 -5 5 -12 26 -16 45 -4 19 -11 40 -15 45 -4 6 -11 26 -15 45 -4 19 -11
40 -15 45 -4 6 -17 39 -29 75 -13 35 -25 69 -29 75 -8 12 -21 46 -51 135 -12
36 -26 74 -31 85 -11 25 -40 177 -50 265 -5 36 -13 85 -19 110 -5 25 -15 92
-21 150 -6 58 -15 139 -21 180 -5 41 -16 122 -24 180 -7 58 -19 150 -25 205
-6 55 -15 118 -20 140 -10 41 -19 107 -46 345 -26 224 -27 256 -11 282 8 12
18 57 22 98 4 41 12 127 19 190 l11 115 53 7 c65 10 140 44 212 98 60 45 95
50 147 22 43 -24 299 -273 335 -327 l29 -44 -16 -88 c-27 -148 -60 -360 -84
-538 -6 -44 -16 -111 -21 -150 -6 -38 -15 -113 -20 -165 -6 -52 -17 -144 -24
-204 -8 -60 -12 -115 -9 -122 2 -7 0 -21 -6 -31 -5 -11 -11 -48 -11 -84 -1
-35 -6 -102 -11 -149 -5 -47 -14 -159 -20 -250 -6 -91 -13 -187 -15 -215 -3
-48 -15 -185 -30 -360 -4 -44 -7 -156 -8 -250 0 -186 3 -201 71 -335 19 -39
33 -80 33 -102 0 -20 5 -40 10 -43 6 -3 10 -19 10 -35 0 -16 -4 -32 -10 -35
-6 -3 -10 -19 -10 -35 0 -22 -13 -40 -57 -79 -31 -28 -62 -51 -69 -51 -6 0
-35 -25 -63 -55 -44 -47 -52 -60 -49 -88 l3 -32 59 3 c33 1 65 7 71 12 6 5 38
12 71 16 32 3 66 8 74 12 33 13 417 55 437 48 7 -3 13 -16 13 -30 0 -13 12
-38 26 -55 20 -24 34 -31 63 -31 20 0 41 4 46 8 6 4 37 18 70 31 33 12 69 27
80 31 78 33 116 47 155 59 25 7 59 17 76 22 17 5 67 9 112 9 96 0 149 20 159
60 3 14 10 31 16 37 5 7 11 43 14 80 2 38 8 77 13 88 5 11 11 34 13 50 3 17
12 50 22 74 13 36 14 52 5 90 -12 46 -31 133 -54 246 -7 33 -15 67 -19 75 -5
14 -12 56 -38 220 -5 36 -14 76 -19 90 -6 14 -15 81 -20 150 -5 69 -14 177
-20 240 -6 63 -15 171 -22 240 -6 70 -8 185 -5 260 9 195 33 532 40 550 11 29
18 172 9 166 -5 -3 -12 -20 -16 -38 -21 -113 -38 -247 -53 -412 -16 -177 -16
-206 0 -485 18 -309 38 -537 57 -656 25 -156 44 -256 71 -370 57 -247 65 -359
28 -425 -38 -67 -64 -75 -229 -72 -79 1 -149 7 -154 12 -6 6 -18 10 -28 10
-11 0 -40 21 -66 47 -38 39 -53 64 -75 131 -44 130 -49 168 -57 473 -4 157
-10 291 -14 297 -4 7 -13 51 -21 99 -8 49 -21 117 -30 153 -27 112 -45 230
-56 365 -28 363 -47 450 -94 443 -22 -3 -26 -22 -44 -208 -31 -328 -33 -396
-28 -705 8 -426 13 -462 82 -670 53 -159 57 -175 52 -241 -12 -163 -73 -203
-267 -174 -142 21 -193 47 -238 118 -59 92 -97 220 -108 370 -6 83 10 360 36
622 5 52 12 138 15 190 3 52 12 165 20 250 8 85 21 243 30 350 15 187 30 314
60 500 7 47 21 137 30 200 9 63 20 134 25 156 5 23 13 73 16 112 4 38 10 75
13 80 4 7 103 11 264 13 l259 2 37 -59 c47 -75 117 -136 199 -175 51 -25 86
-33 174 -41 68 -7 113 -7 119 -1 6 6 0 28 -14 59 -50 106 -53 90 35 174 60 58
78 81 78 102 0 28 -25 49 -48 41 -6 -3 -28 -29 -48 -59 -20 -29 -49 -65 -66
-79 -27 -23 -37 -25 -134 -25 -98 0 -104 -1 -104 -20 0 -43 -32 -35 -84 21
-78 84 -100 135 -94 223 6 90 32 142 111 223 60 61 60 63 42 83 -10 11 -28 20
-41 20 -35 0 -110 -92 -160 -197 l-45 -93 -45 0 c-37 0 -51 6 -75 29 -29 29
-29 31 -29 144 0 99 3 118 20 140 24 31 304 217 327 217 8 0 49 -20 89 -45 41
-24 86 -48 102 -51 53 -12 122 -37 127 -45 3 -4 -15 -11 -40 -14 -35 -6 -45
-11 -45 -26 0 -28 53 -45 163 -52 54 -3 105 -11 113 -17 20 -18 17 -53 -7 -84
-16 -20 -29 -26 -61 -26 -61 0 -158 -28 -208 -60 -59 -38 -91 -72 -134 -144
-29 -48 -36 -70 -36 -112 0 -54 15 -79 42 -69 15 6 48 71 48 94 0 6 9 30 20
51 21 41 110 110 142 110 9 0 20 4 23 10 10 16 77 10 110 -9 23 -14 31 -26 35
-57 8 -66 35 -57 109 35 83 104 108 128 122 114 7 -7 2 -31 -16 -78 -31 -84
-33 -115 -5 -115 11 0 23 7 26 15 10 25 21 17 21 -15 0 -17 9 -40 21 -53 12
-13 22 -32 22 -42 0 -10 7 -26 15 -35 13 -14 13 -23 1 -71 -8 -30 -17 -92 -21
-139 -4 -47 -11 -101 -16 -120 -20 -81 -48 -1363 -29 -1375 13 -8 13 -62 0
-70 -12 -7 -14 -1004 -2 -1023 5 -7 9 83 10 200 1 117 6 355 12 528 5 173 10
556 11 850 1 743 17 930 94 1145 l22 60 74 0 c41 0 80 4 87 8 17 11 15 72 -3
87 -8 7 -51 19 -96 26 -45 8 -90 19 -100 25 -40 21 -10 110 43 128 36 13 666
3 691 -10 20 -11 21 -21 7 -68 -13 -45 -23 -51 -92 -51 -69 0 -104 -12 -111
-39 -9 -37 13 -48 103 -54 90 -5 134 -19 146 -46 42 -102 54 -387 28 -681 -15
-174 -18 -314 -18 -915 -1 -519 3 -742 12 -830 7 -66 19 -192 27 -281 7 -88
19 -187 26 -220 20 -99 6 -128 -77 -155 -73 -25 -309 -62 -338 -54 -100 28
-118 61 -190 339 -20 75 -40 176 -46 224 -6 48 -13 96 -16 107 -9 41 -34 478
-40 710 -6 231 6 700 26 961 11 148 34 280 60 355 11 31 18 63 15 71 -7 17
-135 42 -149 28 -5 -5 1 -28 14 -55 l23 -47 -17 -276 c-37 -609 -45 -1374 -16
-1632 5 -47 14 -130 19 -185 6 -55 20 -179 31 -275 11 -96 20 -178 20 -182 0
-5 -26 -8 -58 -8 -99 0 -178 51 -211 135 -10 27 -11 26 -6 -20 4 -34 14 -60
34 -85 40 -50 57 -88 64 -142 6 -41 4 -49 -15 -63 -13 -8 -42 -15 -66 -15 -76
0 -171 -38 -227 -91 -43 -41 -47 -49 -36 -63 7 -9 21 -16 30 -16 9 0 21 -4 27
-10 5 -5 68 -11 139 -12 l130 -3 3 -25 c4 -30 39 -70 62 -70 9 0 21 -5 27 -11
7 -7 30 -9 60 -5 26 3 95 10 153 16 58 6 114 15 125 20 11 5 64 10 118 12 130
4 137 11 137 143 0 103 3 109 65 119 22 4 58 14 80 23 113 44 122 61 106 189
-25 200 -36 280 -42 289 -4 6 -10 71 -14 145 -4 74 -12 141 -19 149 -12 16
-16 1449 -4 1601 37 467 35 647 -10 756 -16 38 -35 79 -43 91 -11 18 -11 29
-1 56 7 18 12 69 12 113 l0 80 71 69 c39 39 79 86 89 107 27 50 50 118 50 146
0 14 8 26 23 31 28 11 54 47 62 87 4 16 11 39 17 50 6 13 8 56 5 100 -19 293
-83 544 -157 609 l-23 20 7 -25 c17 -57 39 -161 53 -255 29 -197 43 -538 22
-550 -6 -4 -84 -4 -174 0 l-165 7 -6 35 c-3 18 -1 68 6 111 21 123 23 171 10
187 -9 11 -8 20 9 41 39 50 23 164 -22 164 -7 0 -23 -7 -35 -16 -19 -13 -22
-24 -22 -78 0 -41 5 -68 13 -75 12 -9 10 -19 -9 -58 -22 -47 -42 -170 -48
-298 -4 -84 -3 -81 -32 -94 -35 -16 -186 -31 -315 -31 -149 0 -143 -9 -147
232 -4 220 10 401 37 479 22 65 57 137 79 162 23 26 96 23 149 -8 24 -14 60
-32 81 -39 57 -20 114 10 165 87 31 45 51 64 98 87 32 17 70 30 84 30 43 0 28
15 -37 37 -85 28 -96 49 -97 173 0 68 5 111 18 152 31 92 35 96 93 102 261 26
330 44 353 88 8 17 9 28 3 28 -5 0 -23 9 -39 21 -18 13 -69 27 -137 39 l-107
19 -52 56 c-29 31 -55 66 -59 78 -8 25 -113 127 -131 127 -6 0 -15 5 -18 10
-12 20 -67 9 -136 -26 -38 -20 -69 -39 -69 -43 0 -4 -12 -13 -27 -20 -16 -7
-35 -19 -43 -27 -43 -39 -109 -87 -140 -101 -8 -4 -20 -14 -27 -23 -6 -9 -56
-36 -110 -60 -103 -46 -156 -84 -151 -110 3 -12 24 -16 108 -20 l105 -5 1 -30
c5 -105 58 -286 99 -340 12 -17 38 -46 58 -65 22 -22 38 -49 42 -72 8 -40 4
-45 -78 -110 -19 -15 -48 -53 -64 -85 -31 -58 -103 -259 -103 -287 0 -18 -60
-66 -82 -66 -25 0 -39 25 -32 57 4 18 1 33 -5 37 -6 4 -11 16 -11 26 0 11 -10
39 -22 62 -18 37 -132 217 -189 300 -11 15 -19 31 -19 37 0 5 -7 11 -15 15 -8
3 -21 17 -27 32 -19 42 -153 164 -209 191 -45 22 -59 24 -119 18 l-68 -7 -6
44 c-4 23 -11 72 -17 108 -6 36 -9 130 -7 210 l3 145 140 7 c77 5 150 12 163
18 13 5 32 10 42 10 23 0 24 4 10 31 -6 10 -21 19 -35 19 -25 0 -118 21 -204
47 -45 13 -65 28 -123 89 -73 77 -192 156 -263 175 -88 24 -222 -9 -276 -68
-34 -37 -74 -94 -82 -115 -13 -36 -48 -46 -174 -50 -73 -2 -126 1 -131 7 -5 6
-22 44 -37 85 -15 41 -31 84 -36 95 -4 11 -18 45 -30 75 -12 30 -30 73 -40 95
-21 47 -65 148 -82 189 -37 88 -255 509 -289 558 -10 14 -18 29 -18 32 0 3
-37 65 -82 138 -45 73 -95 159 -111 191 -16 31 -33 57 -38 57 -5 0 -9 5 -9 10
0 10 -37 67 -51 80 -3 3 -21 28 -40 55 -18 28 -37 52 -40 55 -3 3 -14 22 -24
43 -10 21 -54 77 -99 126 -44 48 -88 97 -96 109 -16 24 -30 29 -30 11z m130
-176 c0 -5 26 -43 58 -86 32 -43 88 -138 126 -212 37 -74 80 -150 94 -168 45
-57 379 -746 477 -982 7 -16 23 -57 37 -90 14 -33 36 -87 48 -120 22 -62 29
-79 49 -129 33 -81 105 -307 111 -351 9 -55 27 -129 40 -160 5 -11 13 -38 18
-60 13 -52 79 -278 98 -333 8 -23 14 -54 14 -67 0 -43 -119 -195 -153 -195
-10 0 -17 2 -17 3 0 10 -84 243 -90 252 -4 6 -10 24 -14 40 -4 17 -29 84 -56
151 -53 131 -55 156 -11 179 65 33 62 112 -7 140 -19 8 -43 15 -54 15 -32 0
-63 42 -91 120 -14 41 -35 100 -47 130 -12 30 -35 90 -50 133 -15 43 -30 81
-34 84 -3 3 -6 13 -6 21 0 8 -6 28 -14 45 -8 18 -22 57 -31 87 -9 30 -23 69
-30 85 -7 17 -29 77 -49 135 -59 174 -91 264 -98 275 -3 6 -9 27 -13 48 -4 20
-11 40 -16 43 -5 3 -9 11 -9 19 0 8 -5 26 -12 42 -7 15 -13 33 -13 38 -2 11
-12 38 -25 70 -5 11 -19 52 -30 90 -12 39 -26 79 -30 90 -5 11 -11 34 -13 50
-2 17 -23 82 -46 145 -51 137 -127 364 -135 403 -5 20 -3 27 9 27 8 0 15 -3
15 -7z m1209 -2009 c77 -8 81 -14 81 -108 0 -95 21 -175 59 -227 14 -20 58
-65 96 -99 89 -79 95 -87 95 -125 0 -44 -44 -79 -120 -96 -19 -5 -47 -11 -62
-15 -36 -8 -56 14 -107 121 -35 73 -92 244 -106 320 -3 17 -10 46 -15 65 -5
19 -14 62 -20 94 -11 54 -11 61 6 73 10 7 25 11 34 7 8 -3 35 -8 59 -10z
m-3650 -205 c11 -12 23 -35 26 -50 18 -79 91 -155 181 -189 50 -18 78 -20 307
-20 144 0 268 -5 290 -11 20 -5 65 -31 99 -58 72 -55 104 -108 113 -192 l7
-55 -42 -13 c-22 -7 -62 -23 -87 -37 -25 -13 -53 -24 -61 -24 -8 0 -47 31 -87
69 -92 87 -184 139 -278 157 -42 8 -138 14 -230 14 -110 0 -167 4 -190 14 -50
21 -121 104 -146 171 -30 80 -33 175 -6 205 38 43 76 49 104 19z m3192 -157
c9 -9 26 -48 38 -87 12 -38 33 -95 46 -125 12 -30 35 -95 50 -145 16 -49 31
-94 34 -100 25 -46 75 -208 74 -245 0 -25 -21 -121 -47 -214 -25 -94 -46 -179
-46 -191 0 -26 -18 -45 -41 -45 -24 0 -33 16 -40 80 -9 75 -28 171 -39 195
-75 169 -115 227 -203 291 -62 46 -229 134 -254 134 -37 0 -61 113 -43 209 9
53 84 225 113 260 10 11 42 13 177 7 138 -5 167 -9 181 -24z m1469 -204 c38
-25 86 -70 121 -115 128 -161 262 -366 275 -420 4 -15 11 -33 16 -40 5 -6 8
-33 6 -60 l-3 -48 -50 1 c-32 0 -69 10 -105 27 -63 31 -126 46 -223 56 l-68 6
-22 55 c-22 56 -51 76 -68 48 -5 -7 -9 -37 -9 -66 0 -58 2 -56 -90 -83 -31
-10 -103 -14 -226 -14 l-181 0 -49 30 c-55 35 -89 79 -105 139 -6 23 -25 85
-41 140 -34 112 -32 134 17 183 43 43 78 43 136 0 94 -72 162 -91 225 -61 22
10 84 65 139 122 152 158 197 173 305 100z m-4712 -240 c7 -7 12 -24 12 -40 0
-40 18 -72 50 -91 26 -16 29 -16 53 3 44 35 51 27 44 -47 -12 -119 -12 -121
-58 -163 -24 -21 -49 -39 -56 -40 -31 -1 -169 181 -179 237 -9 46 20 119 54
138 33 18 64 19 80 3z m2932 -120 c94 -52 169 -119 236 -208 36 -47 69 -103
75 -125 6 -22 15 -50 20 -63 5 -13 9 -32 9 -44 0 -18 -4 -19 -32 -14 -80 17
-106 17 -134 3 -54 -28 -69 -53 -74 -131 -5 -70 -5 -71 -33 -71 l-28 0 -3 82
c-4 93 -29 156 -63 161 -35 5 -53 -34 -53 -111 l0 -68 -142 6 c-79 4 -167 11
-197 16 -63 10 -200 -4 -270 -28 -24 -9 -57 -28 -72 -43 -40 -37 -72 -33 -79
10 -10 64 -70 63 -70 -1 0 -32 -3 -35 -53 -44 -34 -7 -40 -4 -77 33 -46 46
-48 59 -24 182 18 96 56 172 141 285 93 123 112 138 181 143 64 5 63 5 146
-103 42 -54 102 -78 186 -73 60 3 72 7 113 41 26 21 63 65 84 99 60 96 77 111
121 103 20 -3 62 -20 92 -37z m-1804 0 c14 -27 15 -45 8 -112 -18 -169 -5
-289 43 -419 37 -99 74 -143 173 -200 144 -85 227 -181 350 -402 38 -67 105
-168 143 -213 21 -24 37 -48 37 -54 0 -6 11 -32 25 -60 29 -58 31 -80 9 -113
-24 -37 -86 -53 -224 -59 -69 -3 -151 -12 -183 -21 -32 -8 -62 -15 -67 -15 -5
0 -19 19 -31 42 -40 79 -99 145 -181 203 -211 150 -285 214 -318 274 -20 38
-40 117 -53 204 -13 91 -13 435 0 701 l8 168 40 35 c53 47 110 73 162 73 38 0
44 -4 59 -32z m2558 4 c20 -38 37 -122 43 -212 4 -66 2 -78 -17 -102 -27 -36
-64 -37 -86 -3 -18 27 -39 252 -28 290 17 57 65 72 88 27z m-168 -324 c-3 -18
-8 -69 -11 -113 l-6 -80 36 -35 c31 -30 35 -39 35 -87 0 -44 -5 -59 -25 -78
-32 -32 -70 -32 -91 0 -26 40 -15 235 20 343 27 82 51 111 42 50z m-3233 -322
c79 -78 154 -89 176 -26 8 26 15 30 46 30 56 0 176 -46 206 -79 23 -24 27 -41
33 -120 4 -51 5 -95 3 -98 -3 -2 -54 3 -113 12 l-109 16 -32 -39 c-45 -55 -79
-67 -142 -52 -105 25 -191 107 -245 233 l-28 67 19 32 c23 39 77 78 108 78 14
0 44 -21 78 -54z m2053 -81 c8 -20 -9 -39 -76 -85 -103 -71 -123 -102 -75
-120 14 -5 25 -16 25 -23 0 -19 30 -44 61 -52 22 -5 30 -2 45 20 48 67 52 70
65 58 10 -10 10 -24 -1 -70 -49 -219 -137 -349 -229 -341 -31 3 -36 7 -43 38
-4 19 -5 69 -2 111 6 69 4 77 -17 103 -28 32 -55 27 -67 -13 -11 -41 -7 -202
7 -243 20 -60 56 -88 113 -88 151 0 337 264 338 481 0 25 6 54 14 64 12 17 19
18 75 8 34 -7 111 -35 171 -64 130 -62 132 -64 119 -215 -13 -168 -20 -205
-38 -223 -12 -12 -54 -23 -132 -35 -63 -9 -141 -21 -174 -26 -55 -9 -197 -20
-416 -35 l-87 -6 -42 63 c-23 35 -53 74 -65 88 -16 18 -25 44 -30 90 -4 36 -9
76 -11 90 -2 14 7 41 19 60 50 79 107 225 116 300 l6 45 63 3 63 3 -7 -36 c-7
-37 7 -65 32 -65 8 0 24 21 36 48 16 33 34 52 58 64 44 21 79 23 86 3z m1494
-184 c19 -73 22 -128 10 -200 -10 -61 -16 -74 -36 -83 -21 -10 -28 -8 -45 8
-17 17 -20 36 -22 139 -3 155 3 175 48 175 31 0 35 -3 45 -39z m-6500 -630 c6
-55 27 -70 70 -54 18 7 37 10 43 7 16 -6 89 -120 91 -141 0 -10 -15 -28 -36
-42 -21 -13 -35 -28 -32 -32 3 -5 29 -9 57 -10 85 -1 91 -6 88 -76 -1 -34 2
-64 8 -67 16 -10 41 23 41 54 0 39 9 60 27 60 60 0 344 -180 429 -273 77 -84
95 -94 207 -122 52 -13 110 -31 128 -40 36 -18 89 -64 89 -76 0 -5 -41 -47
-90 -95 -50 -48 -90 -93 -90 -101 0 -18 25 -17 41 3 12 15 131 95 178 120 20
11 30 10 59 -2 46 -19 74 -18 168 6 120 30 241 95 454 244 265 187 348 231
482 258 107 21 709 37 737 19 19 -12 45 -107 44 -161 0 -25 -5 -74 -11 -110
-6 -36 -16 -93 -21 -128 -12 -81 -22 -92 -81 -92 -41 0 -57 6 -111 47 -154
113 -197 119 -330 48 -188 -101 -280 -145 -304 -145 -16 0 -32 11 -47 30 -12
17 -28 30 -35 30 -7 0 -25 -24 -39 -52 -62 -123 -112 -197 -188 -276 -91 -95
-258 -237 -356 -302 -87 -58 -180 -139 -180 -156 0 -23 38 -16 131 26 49 22
94 40 101 40 8 0 10 -59 6 -223 -6 -222 -6 -223 -38 -305 l-33 -82 36 -52 c36
-52 37 -56 53 -218 17 -179 13 -358 -11 -464 -17 -71 -55 -121 -116 -154 -42
-22 -51 -23 -199 -18 -166 4 -254 21 -278 53 -8 11 -12 33 -9 58 9 77 28 169
39 182 23 28 57 11 83 -41 15 -30 38 -26 48 10 7 25 3 43 -27 106 -39 82 -45
129 -27 195 9 32 18 44 37 49 24 6 63 2 97 -11 28 -11 21 18 -20 85 -60 98
-61 100 -74 200 -20 163 -22 215 -7 228 8 6 55 12 106 13 100 2 113 11 66 48
-32 25 -126 61 -160 61 -53 0 -121 58 -180 152 -15 24 -46 64 -70 90 -24 25
-46 58 -49 71 -7 26 11 134 25 152 4 6 10 22 14 38 10 42 -17 34 -61 -18 -42
-51 -63 -61 -93 -45 -24 13 -25 30 -4 90 21 64 39 100 68 139 14 19 23 38 19
44 -10 16 -80 -65 -126 -145 l-44 -77 -59 36 c-121 74 -311 177 -484 264 -97
49 -183 96 -191 105 -11 14 -10 22 8 53 22 38 26 92 7 98 -6 2 -44 -32 -84
-77 -67 -75 -146 -130 -186 -130 -16 0 -78 77 -130 161 -20 32 -43 59 -50 59
-16 0 -18 -13 -4 -38 9 -18 28 -61 54 -126 26 -62 20 -94 -27 -166 -99 -152
-130 -204 -224 -378 -48 -88 -55 -109 -79 -237 -19 -99 -14 -154 25 -272 17
-51 31 -95 31 -97 0 -3 -13 -12 -29 -20 -38 -20 -63 -84 -63 -161 0 -33 -2
-68 -5 -77 -7 -29 -40 -21 -68 16 -15 19 -42 40 -61 46 -60 20 -65 32 -58 123
4 45 10 87 14 92 4 6 10 38 13 72 4 35 11 71 17 80 5 10 14 59 19 108 6 50 15
118 20 153 39 234 309 875 478 1133 74 114 162 181 278 213 33 10 71 20 85 24
15 5 25 15 25 27 0 18 -4 20 -87 39 -27 6 -27 8 -30 93 -3 85 -4 88 -30 101
-53 25 -21 85 41 80 34 -3 36 -5 41 -47z m5467 -69 c10 -7 30 -131 48 -307 3
-33 10 -91 15 -130 5 -38 17 -126 25 -195 49 -389 87 -605 130 -734 7 -23 16
-57 20 -76 4 -19 11 -48 16 -65 5 -16 25 -91 45 -165 19 -74 39 -148 44 -165
5 -16 17 -57 26 -90 22 -83 84 -285 95 -313 5 -13 9 -62 9 -111 0 -76 -4 -95
-27 -142 -34 -65 -67 -84 -168 -92 -158 -13 -323 17 -362 65 -7 8 -16 123 -22
288 -21 493 -23 511 -90 664 -21 48 -32 85 -52 176 -27 121 -40 178 -49 210
-26 94 -51 214 -64 300 -8 52 -23 145 -32 205 -19 114 -22 201 -9 247 6 23 2
30 -36 57 -55 40 -117 60 -129 41 -11 -17 -3 -39 28 -72 19 -20 30 -54 48
-140 13 -62 33 -149 45 -193 17 -63 22 -108 23 -215 0 -182 -22 -629 -39 -765
-13 -104 -12 -118 11 -256 13 -81 28 -157 33 -170 24 -64 25 -421 0 -460 -9
-15 -152 -19 -221 -6 -78 16 -88 65 -97 512 -4 192 -12 360 -19 385 -6 25 -15
77 -20 115 -6 39 -17 97 -26 130 -55 197 -65 257 -67 405 -2 114 -2 116 41
225 89 230 104 305 103 530 0 99 -4 199 -8 221 -4 26 -3 44 3 48 44 27 693 61
729 38z m-947 -203 c25 -5 73 -14 108 -21 l63 -11 -4 -116 c-2 -64 -10 -141
-16 -171 -54 -242 -284 -744 -526 -1145 -141 -234 -176 -299 -233 -436 -22
-52 -71 -164 -110 -249 -38 -85 -89 -200 -112 -255 -53 -127 -69 -145 -131
-145 -58 0 -72 14 -59 61 13 46 66 155 79 164 15 9 14 35 -2 35 -17 0 -83 -70
-136 -143 -38 -53 -45 -57 -81 -57 -59 0 -149 37 -163 67 -12 26 2 117 28 176
7 18 23 57 35 87 13 30 35 82 50 115 15 33 42 94 60 135 56 130 119 245 150
275 16 16 46 31 67 34 35 6 38 9 45 49 10 59 73 197 147 322 89 149 155 291
202 431 38 112 41 131 41 225 0 56 -5 111 -11 122 -7 12 -11 80 -11 166 l0
145 64 54 c61 52 119 78 196 90 51 8 216 6 260 -4z m-581 -206 c1 -131 9 -124
-112 -97 -94 22 -229 16 -494 -21 -44 -6 -54 -5 -59 9 -9 23 24 125 44 135 10
5 67 11 127 15 86 5 123 2 170 -10 33 -9 86 -18 119 -21 56 -5 59 -4 96 32 32
32 59 77 86 150 11 30 22 -59 23 -192z m-3681 -672 c87 -35 92 -44 62 -120
-14 -33 -32 -70 -41 -82 -16 -22 -18 -22 -44 -5 -32 21 -101 126 -117 177 -9
30 -8 42 2 54 16 19 45 14 138 -24z m269 -136 c34 -20 63 -40 63 -44 0 -32
-98 -67 -179 -64 -41 2 -45 6 -38 35 6 23 73 108 84 108 3 0 35 -16 70 -35z
m6227 -267 c8 -29 22 -89 31 -133 9 -44 21 -96 26 -115 5 -19 14 -93 19 -165
6 -71 12 -148 15 -170 2 -22 9 -87 15 -145 11 -110 38 -248 50 -265 4 -5 11
-26 15 -45 4 -19 10 -39 14 -45 4 -5 17 -37 30 -70 13 -33 29 -74 37 -92 8
-17 14 -61 14 -98 0 -63 -2 -69 -34 -101 -30 -30 -40 -34 -89 -34 -38 0 -59 5
-68 16 -25 30 -39 88 -33 139 7 62 -22 315 -56 485 -6 30 -13 84 -15 120 -3
36 -9 88 -16 115 -11 54 -25 614 -16 640 4 8 15 15 26 15 16 0 24 -11 35 -52z
m-2699 -540 c-3 -13 -10 -39 -15 -58 -11 -41 -70 -235 -112 -370 -17 -52 -37
-117 -45 -145 -30 -100 -56 -165 -69 -176 -20 -16 -53 -1 -60 28 -11 44 5 195
26 252 36 92 188 389 227 441 40 54 58 64 48 28z m-673 -784 c64 -33 41 -191
-29 -209 -15 -3 -61 -10 -104 -15 -49 -6 -96 -18 -129 -35 -46 -23 -60 -25
-153 -23 l-102 3 41 22 c49 26 173 123 264 206 36 33 74 63 85 67 26 10 92 1
127 -16z m331 -60 c36 -7 36 -42 -2 -78 -26 -25 -34 -27 -96 -24 -60 3 -70 6
-87 29 -19 25 -19 28 -3 59 l16 32 72 -7 c40 -3 84 -8 100 -11z m-2414 -250
c44 -9 40 -28 -24 -125 -30 -46 -55 -88 -55 -94 0 -25 43 -54 112 -75 179 -54
197 -62 232 -96 69 -67 67 -68 -211 -60 -182 6 -252 11 -261 21 -11 10 -12 24
-2 71 6 33 15 68 20 79 5 11 13 47 19 80 15 97 27 133 56 170 27 37 48 42 114
29z"/>
<path d="M4815 4431 c-6 -10 12 -95 26 -123 5 -10 9 -35 9 -56 0 -46 15 -65
42 -51 23 12 23 39 -1 109 -41 118 -59 147 -76 121z"/>
<path d="M5787 4091 c-26 -28 -47 -54 -47 -59 0 -17 28 -34 43 -25 30 18 88
93 85 110 -6 33 -34 24 -81 -26z"/>
<path d="M2107 2677 c-18 -15 -97 -164 -97 -183 0 -20 27 -29 44 -15 7 6 18
28 24 49 6 20 29 55 51 76 31 31 38 43 31 56 -13 24 -35 31 -53 17z"/>
<path d="M2550 954 c-33 -73 -69 -124 -143 -200 -56 -59 -62 -97 -16 -102 21
-2 34 9 82 74 101 135 158 253 136 281 -19 23 -28 15 -59 -53z"/>
<path d="M8309 4280 c-20 -17 -22 -21 -9 -29 8 -6 25 -8 36 -5 12 3 31 1 42
-5 16 -9 24 -7 36 5 21 20 20 31 -3 44 -31 16 -77 12 -102 -10z"/>
<path d="M8091 4210 c-60 -50 -76 -82 -47 -93 8 -3 29 6 48 19 18 14 49 34 69
44 39 20 52 41 43 65 -11 28 -52 15 -113 -35z"/>
<path d="M9156 3920 c-63 -8 -88 -27 -79 -60 10 -38 29 -43 124 -37 66 4 96
11 110 23 25 23 24 49 -3 68 -24 17 -56 18 -152 6z"/>
<path d="M8510 3814 c-29 -24 -66 -52 -81 -60 -32 -16 -39 -48 -13 -58 21 -8
95 39 147 92 36 37 37 39 19 55 -17 16 -21 14 -72 -29z"/>
<path d="M7620 3672 c-14 -2 -36 -12 -50 -22 -36 -28 -17 -55 38 -56 29 0 49
-7 65 -22 29 -27 49 -28 72 -2 43 48 -37 113 -125 102z"/>
<path d="M7615 3500 c-16 -18 -17 -33 -11 -157 7 -153 12 -179 32 -187 25 -10
40 21 53 115 7 52 17 118 23 147 11 49 10 54 -12 77 -28 30 -61 32 -85 5z"/>
<path d="M9520 1635 c-7 -8 -10 -27 -7 -42 3 -16 10 -55 16 -88 7 -33 12 -130
12 -216 0 -182 -10 -219 -71 -261 -49 -34 -59 -66 -33 -110 22 -38 65 -54 105
-39 39 15 80 100 82 171 0 30 -12 174 -29 318 -24 216 -33 265 -46 273 -12 6
-21 4 -29 -6z"/>
<path d="M7222 1618 c-5 -7 -12 -59 -13 -115 -3 -87 -1 -105 14 -120 14 -14
21 -15 35 -7 14 10 16 24 13 90 -6 141 -20 186 -49 152z"/>
<path d="M7490 1598 c-5 -13 -15 -50 -20 -83 -6 -33 -16 -87 -21 -119 -6 -33
-22 -84 -35 -114 -22 -51 -23 -57 -9 -79 20 -30 60 -30 80 0 28 43 59 250 53
356 -2 44 -7 57 -20 59 -11 2 -22 -6 -28 -20z"/>
<path d="M8259 1381 c-20 -16 -23 -30 -30 -122 -8 -117 -25 -191 -64 -273 -28
-59 -26 -76 6 -76 49 0 155 238 174 393 7 51 5 55 -20 76 -34 26 -37 26 -66 2z"/>
</g>
</svg>
